<?xml version="1.0" encoding="UTF-8" standalone="no"?>
<svg xmlns="http://www.w3.org/2000/svg" version="1.1">
<g transform="scale(10.0, -10.0)">
  <g id="acryl_+01mm">
    <path id="acryl_+01mm_0" d="M 19.0767,0.0000 L 19.0667,0.0000 L 0.0000,0.0000 L 0.0000,-1.1667 L 0.0000,-1.1767 L 0.1900,-1.1767 L 0.1900,-2.3233 L 0.0000,-2.3233 L 0.0000,-2.3333 L 0.0000,-3.5000 L 24.5000,-3.5000 L 24.5000,-2.3333 L 24.5000,-2.3233 L 24.3100,-2.3233 L 24.3100,-1.1767 L 24.5000,-1.1767 L 24.5000,-1.1667 L 24.5000,0.0000 L 21.6833,0.0000 L 21.6733,0.0000 L 21.6733,-0.1900 L 19.0767,-0.1900 Z" stroke="#fe0000" stroke-width="0.0010000000474974513" fill="none" />
    <path id="acryl_+01mm_1" d="M 16.2550,-2.3283 L 16.2550,-1.1717 L 16.4450,-1.1717 L 16.4450,-2.3283 Z" stroke="#fe0000" stroke-width="0.0010000000474974513" fill="none" />
    <path id="acryl_+01mm_2" d="M -10.8286,-3.3125 L -9.6620,-3.3125 L -9.6620,28.7575 L -10.8286,28.7575 L -10.8286,28.9575 L -11.9953,28.9575 L -11.9953,28.7575 L -13.1620,28.7575 L -13.1620,-3.3125 L -11.9953,-3.3125 L -11.9953,-3.5125 L -10.8286,-3.5125 Z" stroke="#fe0000" stroke-width="0.0010000000474974513" fill="none" />
    <path id="acryl_+01mm_3" d="M 0.0000,0.9267 L 7.8500,0.9267 L 7.8500,14.3267 L 0.0000,14.3267 Z" stroke="#fe0000" stroke-width="0.0010000000474974513" fill="none" />
    <path id="acryl_+01mm_4" d="M 14.0356,0.9810 L 14.0356,0.7810 L 11.4190,0.7810 L 11.4190,0.9810 L 8.8023,0.9810 L 8.8023,4.7210 L 8.6023,4.7210 L 8.6023,8.4610 L 8.8023,8.4610 L 8.8023,12.2010 L 8.6023,12.2010 L 8.6023,15.9410 L 8.8023,15.9410 L 8.8023,19.6810 L 11.4190,19.6810 L 11.4290,19.6810 L 11.4290,19.4910 L 14.0256,19.4910 L 14.0256,19.6810 L 14.0356,19.6810 L 16.6523,19.6810 L 16.6523,15.9410 L 16.8523,15.9410 L 16.8523,12.2010 L 16.6523,12.2010 L 16.6523,8.4610 L 16.8523,8.4610 L 16.8523,4.7210 L 16.6523,4.7210 L 16.6523,0.9810 Z" stroke="#fe0000" stroke-width="0.0010000000474974513" fill="none" />
    <path id="acryl_+01mm_5" d="M 8.8023,26.6909 L 8.6023,26.6909 L 8.6023,27.7242 L 8.8023,27.7242 L 8.8023,28.7576 L 11.4190,28.7576 L 11.4190,28.9576 L 14.0357,28.9576 L 14.0357,28.7576 L 16.6523,28.7576 L 16.6523,27.7242 L 16.8523,27.7242 L 16.8523,26.6909 L 16.6523,26.6909 L 16.6523,25.6576 L 14.0357,25.6576 L 11.4190,25.6576 L 8.8023,25.6576 Z" stroke="#fe0000" stroke-width="0.0010000000474974513" fill="none" />
    <path id="acryl_+01mm_6" d="M 14.0357,27.7242 L 14.0357,26.6909 L 11.4190,26.6909 L 11.4190,27.7242 Z" stroke="#fe0000" stroke-width="0.0010000000474974513" fill="none" />
    <path id="acryl_+01mm_7" d="M 22.0130,10.2576 L 24.6297,10.2576 L 27.2463,10.2576 L 29.8630,10.2576 L 29.8630,13.9976 L 29.8630,17.7376 L 29.8630,21.4776 L 29.8630,25.2176 L 29.8630,28.7576 L 27.2463,28.7576 L 24.6297,28.7576 L 22.0130,28.7576 L 22.0130,25.2176 L 22.0130,21.4776 L 22.0130,17.7376 L 22.0130,13.9976 Z" stroke="#fe0000" stroke-width="0.0010000000474974513" fill="none" />
    <path id="acryl_+01mm_8" d="M -1.0159,17.8676 L -1.0159,17.8776 L -1.0159,-3.3124 L -2.1826,-3.3124 L -2.1826,-3.5124 L -3.3493,-3.5124 L -3.3493,-3.3124 L -4.5159,-3.3124 L -4.5159,0.3976 L -4.5159,0.4076 L -4.3259,0.4076 L -4.3259,4.1276 L -4.5259,4.1276 L -4.5259,7.8876 L -4.3259,7.8876 L -4.3259,11.6076 L -4.5159,11.6076 L -4.5159,11.6176 L -4.5159,28.7576 L -3.3493,28.7576 L -3.3493,28.9576 L -2.1826,28.9576 L -2.1826,28.7576 L -1.0159,28.7576 L -1.0159,26.0376 L -1.2159,26.0376 L -1.2159,23.3176 L -1.0159,23.3176 L -1.0159,20.5976 L -1.0159,20.6076 L -1.2259,20.6076 L -1.2259,17.8676 Z" stroke="#fe0000" stroke-width="0.0010000000474974513" fill="none" />
    <path id="acryl_+01mm_9" d="M -1.0159,26.0476 L -1.2259,26.0476 L -1.2259,23.3076 L -1.0159,23.3076 L -1.0159,23.3176 L -1.2159,23.3176 L -1.2159,26.0376 L -1.0159,26.0376 Z" stroke="#fe0000" stroke-width="0.0010000000474974513" fill="none" />
    <path id="acryl_+01mm_10" d="M -2.2543,15.1626 L -2.2543,15.3526 L -3.2776,15.3526 L -3.2776,15.1626 Z" stroke="#fe0000" stroke-width="0.0010000000474974513" fill="none" />
    <path id="acryl_+01mm_11" d="M -1.0159,20.5976 L -1.2159,20.5976 L -1.2159,17.8776 L -1.0159,17.8776 L -1.2159,17.8776 L -1.2159,20.5976 Z" stroke="#fe0000" stroke-width="0.0010000000474974513" fill="none" />
    <path id="acryl_+01mm_12" d="M -5.7475,20.5976 L -5.7475,17.8776 L -5.5475,17.8776 L -5.7475,17.8776 L -5.7475,20.5976 L -5.5475,20.5976 L -5.5475,20.6076 L -5.7575,20.6076 L -5.7575,17.8676 L -5.5475,17.8676 L -5.5475,17.8776 L -5.5475,-3.3124 L -6.7141,-3.3124 L -6.7141,-3.5124 L -7.8808,-3.5124 L -7.8808,-3.3124 L -9.0475,-3.3124 L -9.0475,0.3976 L -9.0475,0.4076 L -8.8575,0.4076 L -8.8575,4.1276 L -9.0575,4.1276 L -9.0575,7.8876 L -8.8575,7.8876 L -8.8575,11.6076 L -9.0475,11.6076 L -9.0475,11.6176 L -9.0475,18.4375 L -7.5278,18.4375 L -7.5278,21.7104 L -9.0475,21.7104 L -9.0475,28.7576 L -7.8808,28.7576 L -7.8808,28.9576 L -6.7141,28.9576 L -6.7141,28.7576 L -5.5475,28.7576 L -5.5475,26.0376 L -5.7475,26.0376 L -5.7475,23.3176 L -5.5475,23.3176 L -5.5475,20.5976 Z" stroke="#fe0000" stroke-width="0.0010000000474974513" fill="none" />
    <path id="acryl_+01mm_13" d="M -5.5475,23.3076 L -5.7575,23.3076 L -5.7575,26.0476 L -5.5475,26.0476 L -5.5475,26.0376 L -5.7475,26.0376 L -5.7475,23.3176 L -5.5475,23.3176 Z" stroke="#fe0000" stroke-width="0.0010000000474974513" fill="none" />
    <path id="acryl_+01mm_14" d="M -7.5778,15.3526 L -7.8091,15.3526 L -7.8091,15.1626 L -7.5810,15.1626 L -6.7858,15.1626 L -6.7858,15.3526 Z" stroke="#fe0000" stroke-width="0.0010000000474974513" fill="none" />
    <path id="acryl_+01mm_15" d="M 18.7827,28.7576 L 18.7727,28.7576 L 17.6061,28.7576 L 17.6061,9.6909 L 17.6061,9.6809 L 17.7961,9.6809 L 17.7961,7.0842 L 17.6061,7.0842 L 17.6061,7.0742 L 17.6061,4.2576 L 18.7727,4.2576 L 18.7827,4.2576 L 18.7827,4.4476 L 19.9294,4.4476 L 19.9294,4.2576 L 19.9394,4.2576 L 21.1061,4.2576 L 21.1061,28.7576 L 19.9394,28.7576 L 19.9294,28.7576 L 19.9294,28.5676 L 18.7827,28.5676 Z" stroke="#fe0000" stroke-width="0.0010000000474974513" fill="none" />
    <path id="acryl_+01mm_16" d="M 19.9294,12.3126 L 19.9294,12.5026 L 18.7827,12.5026 L 18.7827,12.3126 Z" stroke="#fe0000" stroke-width="0.0010000000474974513" fill="none" />
    <path id="acryl_+01mm_17" d="M 3.9250,28.9668 L 5.2334,28.9668 L 5.2334,28.7576 L 7.8500,28.7576 L 7.8500,26.0376 L 8.0500,26.0376 L 8.0500,23.3176 L 7.8500,23.3176 L 7.8500,20.5976 L 8.0500,20.5976 L 8.0500,17.8776 L 7.8500,17.8776 L 7.8500,15.1576 L 5.2334,15.1576 L 3.9250,15.1576 L 2.6167,15.1576 L 0.0000,15.1576 L 0.0000,17.8776 L -0.2000,17.8776 L -0.2000,20.5976 L 0.0000,20.5976 L 0.0000,23.3176 L -0.2000,23.3176 L -0.2000,26.0376 L 0.0000,26.0376 L 0.0000,28.7576 L 2.6167,28.7576 L 2.6167,28.9668 Z" stroke="#fe0000" stroke-width="0.0010000000474974513" fill="none" />
    <path id="acryl_+01mm_18" d="M 175.7009,-45.5064 C 175.7009,-45.3171 175.8544,-45.1635 176.0438,-45.1635 C 176.2332,-45.1635 176.3868,-45.3171 176.3868,-45.5064 C 176.3868,-45.6958 176.2332,-45.8494 176.0438,-45.8494 C 175.8544,-45.8494 175.7009,-45.6958 175.7009,-45.5064 Z" stroke="#fe0000" stroke-width="0.0010000000474974513" fill="none" />
    <path id="acryl_+01mm_19" d="M 172.6038,-45.5050 C 172.6038,-45.3156 172.7574,-45.1620 172.9468,-45.1620 C 173.1361,-45.1620 173.2897,-45.3156 173.2897,-45.5050 C 173.2897,-45.6943 173.1361,-45.8479 172.9468,-45.8479 C 172.7574,-45.8479 172.6038,-45.6943 172.6038,-45.5050 Z" stroke="#fe0000" stroke-width="0.0010000000474974513" fill="none" />
    <path id="acryl_+01mm_20" d="M 172.6038,-48.5576 C 172.6038,-48.3682 172.7574,-48.2146 172.9468,-48.2146 C 173.1361,-48.2146 173.2897,-48.3682 173.2897,-48.5576 C 173.2897,-48.7470 173.1361,-48.9006 172.9468,-48.9006 C 172.7574,-48.9006 172.6038,-48.7470 172.6038,-48.5576 Z" stroke="#fe0000" stroke-width="0.0010000000474974513" fill="none" />
    <path id="acryl_+01mm_21" d="M 175.7008,-48.5576 C 175.7008,-48.3682 175.8544,-48.2146 176.0438,-48.2146 C 176.2332,-48.2146 176.3868,-48.3682 176.3868,-48.5576 C 176.3868,-48.7470 176.2332,-48.9006 176.0438,-48.9006 C 175.8544,-48.9006 175.7008,-48.7470 175.7008,-48.5576 Z" stroke="#fe0000" stroke-width="0.0010000000474974513" fill="none" />
  </g>
</g>
</svg>